<?xml version="1.0" standalone="no"?>
<!DOCTYPE svg PUBLIC "-//W3C//DTD SVG 20010904//EN"
 "http://www.w3.org/TR/2001/REC-SVG-20010904/DTD/svg10.dtd">
<svg version="1.0" xmlns="http://www.w3.org/2000/svg"
 width="100.000000pt" height="100.000000pt" viewBox="0 0 100.000000 100.000000"
 preserveAspectRatio="xMidYMid meet">

<g transform="translate(0.000000,100.000000) scale(0.100000,-0.100000)"
fill="#000000" stroke="none">
<path d="M2400 4892 c-83 -28 -1894 -1079 -1957 -1136 -31 -28 -63 -70 -80
-104 l-28 -57 0 -1140 0 -1140 32 -65 c18 -36 49 -81 70 -102 49 -46 502 -307
547 -315 50 -8 89 9 216 93 63 42 172 104 241 138 l126 63 -52 31 c-78 47
-198 163 -253 246 -50 75 -102 187 -124 269 l-12 47 -76 0 c-92 0 -140 20
-194 80 -44 49 -78 118 -103 210 -23 90 -23 291 1 380 55 202 148 290 306 290
l76 0 29 93 c50 156 133 303 251 442 l57 67 19 322 c10 176 23 346 29 376 22
108 112 155 173 91 42 -44 53 -100 66 -327 6 -115 13 -219 16 -232 l4 -22 38
19 c134 68 389 119 632 128 389 13 715 -78 972 -272 184 -139 323 -341 407
-590 l30 -90 88 -6 c102 -7 133 -20 192 -84 81 -88 121 -218 121 -395 0 -127
-19 -224 -61 -308 -59 -120 -135 -171 -255 -172 l-70 0 -23 -72 c-67 -208
-201 -385 -369 -488 l-52 -32 122 -62 c68 -33 181 -99 253 -146 123 -81 132
-85 185 -85 52 1 67 7 290 135 266 153 322 199 361 295 l24 60 0 1130 0 1130
-32 65 c-18 36 -49 82 -70 102 -37 36 -1791 1059 -1921 1121 -81 38 -165 45
-242 19z"/>
<path d="M2385 3113 c-209 -17 -371 -55 -498 -119 -160 -81 -273 -195 -347
-349 -68 -140 -81 -201 -87 -388 -14 -418 59 -675 222 -787 127 -87 256 -108
715 -116 509 -9 718 10 865 81 125 60 202 160 244 317 57 209 63 546 15 738
-36 144 -133 306 -235 390 -117 99 -286 176 -459 209 -118 23 -316 34 -435 24z
m-258 -335 c34 -38 43 -64 43 -127 0 -94 -30 -160 -100 -224 -177 -159 -310
-138 -310 50 0 110 52 194 167 274 56 39 80 48 134 48 35 1 50 -4 66 -21z"/>
<path d="M2410 881 c-81 -25 -130 -73 -130 -128 0 -86 91 -148 215 -148 84 1
135 17 181 57 78 69 41 173 -75 213 -47 16 -148 19 -191 6z"/>
<path d="M1926 830 c-69 -21 -96 -84 -55 -129 28 -30 60 -41 120 -41 59 0 113
21 128 48 46 86 -70 158 -193 122z"/>
<path d="M2945 833 c-34 -9 -75 -43 -81 -68 -14 -57 50 -105 141 -105 177 0
194 165 17 175 -31 2 -66 1 -77 -2z"/>
</g>
</svg>
